<svg width="8" height="11" viewBox="0 0 8 11" fill="none" xmlns="http://www.w3.org/2000/svg">
<path d="M5.30351 3.1382C5.21989 3.57605 4.79717 3.86321 4.35932 3.77959C3.92147 3.69598 3.63431 3.27325 3.71793 2.8354C3.80155 2.39756 4.22427 2.1104 4.66212 2.19401C5.09996 2.27763 5.38712 2.70035 5.30351 3.1382Z" fill="#00C29F"/>
<path d="M1.98373 10.3776C0.702084 9.93029 0.0209887 8.52749 0.473269 7.23168C0.59627 6.87928 0.672754 6.67593 0.790834 6.32184C0.855625 6.12456 1.38161 5.23874 1.73714 4.99694C2.3075 4.60905 2.52206 4.57449 3.07371 4.48156C3.73803 4.36965 4.54908 4.65144 5.1377 4.40086C5.54139 4.22986 5.85639 3.89327 6.00161 3.47722C6.01545 3.43755 6.02705 3.40009 6.03677 3.36272C6.04361 3.3378 6.04947 3.31255 6.05499 3.28718C6.06064 3.26147 6.06562 3.23554 6.06983 3.2097C6.0795 3.14913 6.08575 3.08885 6.08842 3.03032C6.11181 2.5108 5.87753 2.01839 5.46197 1.71366C5.41546 1.67947 5.36517 1.64659 5.31194 1.61679C5.28939 1.60406 5.26627 1.59187 5.24292 1.58036C5.21989 1.56895 5.19675 1.55789 5.17294 1.5477C5.13804 1.53216 5.10191 1.51805 5.063 1.50447C5.02409 1.49089 4.9867 1.47933 4.94971 1.46979C4.92506 1.46306 4.90006 1.45732 4.87494 1.45192C4.8495 1.44641 4.82382 1.44156 4.79823 1.43749C4.77893 1.43449 4.75952 1.43183 4.74076 1.4294C4.72201 1.42697 4.70302 1.4252 4.68458 1.424C4.66625 1.42246 4.64825 1.42104 4.63023 1.42074C4.59311 1.419 4.55884 1.41863 4.52553 1.41972C4.00219 1.43228 3.50822 1.72099 3.23721 2.17316L3.23663 2.17482L3.23572 2.17637C3.22924 2.18646 3.22183 2.1992 3.21408 2.21295C3.2013 2.23579 3.18906 2.25919 3.17748 2.28283C3.16602 2.30613 3.15489 2.32954 3.14463 2.35364C3.14094 2.36207 3.13738 2.37018 3.13402 2.37873C3.00815 2.5274 2.80138 2.58463 2.61904 2.52099C2.39912 2.44422 2.26997 2.22076 2.31147 1.98954C2.34525 1.9097 2.384 1.83048 2.42601 1.75464L2.42919 1.74976C3.01837 0.69546 4.26533 0.216305 5.39299 0.609896C6.01156 0.825796 6.50887 1.27463 6.79372 1.87331C7.0789 2.47212 7.11552 3.1461 6.89724 3.7715L5.12861 8.83873C4.67633 10.1345 3.26537 10.825 1.98373 10.3776Z" fill="#00C29F"/>
</svg>
